# xmcd
#
# Track frame offsets: 
#        150
#        12266
#        24788
#        36562
#        48682
#        61401
#        73385
#        85404
#        97400
#        109144
#        121343
#        133795
#        145459
#        157639
#        169778
#        182066
#        194678
#        204757
#        209995
#        215582
#        221507
#        233682
#        245721
#        257350
#        269531
#        281834
#        293643
#        305257
#        314677
#        326253
#        335831
#        348580
#        357646
#
# Disc length: 4793 seconds
#
# Revision: 0
# Processed by: cddbd v1.5.1PL0 Copyright (c) Steve Scherf et al.
# Submitted via: ExactAudioCopy v0.95a5
#
DISCID=2012b721
DTITLE=Various Artist - Premo Beats (Mixed by E-NYCE) - CD2
DYEAR=1900
DGENRE=Hip-Hop Instrumentals
TTITLE0=Kool G. Rap/The First Nigga
TTITLE1=Screwball/Seen It All
TTITLE2=Afu Ra/Equality
TTITLE3=Royce Da 5'9/Boom
TTITLE4=Afu Ra/Defeat
TTITLE5=D&D Allstars/1&2 Pass It
TTITLE6=DITC/Thick
TTITLE7=Gangstarr/Just 2 Get A Rep
TTITLE8=Group Home/Supa Star
TTITLE9=Group Home/The Realness
TTITLE10=Group Home/Suspended In Time
TTITLE11=Group Home/Livin Proof
TTITLE12=Shobiz and AZ/The Next Level (Remix)
TTITLE13=Jeru The Damaja/Me Not The Paper (Unreleased Remix)
TTITLE14=Jeru The Damaja/Me Or The Paper
TTITLE15=Jeru The Damaja/Come Clean
TTITLE16=Gangstarr/So Wassup
TTITLE17=Gangstarr/Speak Ya Clout (Beat 1)
TTITLE18=Gangstarr/Speak Ya Clout 2 (Beat 2)
TTITLE19=Gangstarr/Speak Ya Clout 3 (Beat 3)
TTITLE20=Gangstarr/Code Of Da Streetz
TTITLE21=Gangstarr/Capture
TTITLE22=Gangstarr/Deadly Habitz
TTITLE23=Gangstarr/Nice Girl, Wrong Place
TTITLE24=Gangstarr/Skillz
TTITLE25=Gangstarr/Peace Of Mine
TTITLE26=Gangstarr/In This Life
TTITLE27=Gangstarr/Rite Where You Stand
TTITLE28=Gangstarr/Playtawin
TTITLE29=Pushim/Set Me Free
TTITLE30=Rakim/When I Be On The Mic
TTITLE31=Screwball/F.A.Y.B.A.N.
TTITLE32=E-NYCE/Double Set Pt. 1 Outro
EXTD=
EXTT0=
EXTT1=
EXTT2=
EXTT3=
EXTT4=
EXTT5=
EXTT6=
EXTT7=
EXTT8=
EXTT9=
EXTT10=
EXTT11=
EXTT12=
EXTT13=
EXTT14=
EXTT15=
EXTT16=
EXTT17=
EXTT18=
EXTT19=
EXTT20=
EXTT21=
EXTT22=
EXTT23=
EXTT24=
EXTT25=
EXTT26=
EXTT27=
EXTT28=
EXTT29=
EXTT30=
EXTT31=
EXTT32=
PLAYORDER=
